<?xml version="1.0" encoding="UTF-8"?>
<!DOCTYPE svg PUBLIC "-//W3C//DTD SVG 1.1//EN" "http://www.w3.org/Graphics/SVG/1.1/DTD/svg11.dtd">
<svg xmlns="http://www.w3.org/2000/svg" version="1.1" width="939px" height="940px" style="shape-rendering:geometricPrecision; text-rendering:geometricPrecision; image-rendering:optimizeQuality; fill-rule:evenodd; clip-rule:evenodd" xmlns:xlink="http://www.w3.org/1999/xlink">
<g><path style="opacity:0.994" fill="#1ed75f" d="M 439.5,13.5 C 579.225,7.66171 698.391,53.6617 797,151.5C 896.917,258.927 938.25,385.927 921,532.5C 897.505,678.208 823.005,789.042 697.5,865C 574.558,932.545 446.558,943.878 313.5,899C 182.089,848.589 90.9226,757.756 40,626.5C 0.454165,512.207 3.7875,399.207 50,287.5C 95.5735,185.26 168.407,109.093 268.5,59C 322.731,33.0272 379.731,17.8606 439.5,13.5 Z M 334.5,267.5 C 495.588,262.415 647.588,296.915 790.5,371C 811.737,388.259 815.571,408.759 802,432.5C 789.161,448.085 772.994,453.251 753.5,448C 579.92,358.917 397.254,332.917 205.5,370C 176.345,370.682 160.012,356.515 156.5,327.5C 158.402,306.78 169.068,292.947 188.5,286C 236.837,276.057 285.504,269.891 334.5,267.5 Z M 333.5,425.5 C 472.34,420.046 603.007,449.879 725.5,515C 743.061,527.744 747.227,543.91 738,563.5C 727.504,577.887 713.671,582.721 696.5,578C 546.643,498.449 388.643,476.116 222.5,511C 196.016,510.515 183.183,497.015 184,470.5C 186.885,456.616 195.051,447.449 208.5,443C 249.863,433.924 291.53,428.091 333.5,425.5 Z M 340.5,566.5 C 458.117,561.919 568.117,588.419 670.5,646C 686.07,660.352 686.403,675.018 671.5,690C 663.248,695.323 654.582,696.323 645.5,693C 518.323,622.165 383.657,602.832 241.5,635C 225.32,637.329 214.487,630.829 209,615.5C 206.728,602.884 210.894,593.05 221.5,586C 240.802,580.139 260.469,575.806 280.5,573C 300.588,570.226 320.588,568.059 340.5,566.5 Z"/></g>
</svg>
